<svg width="71" height="41" viewBox="0 0 71 41" fill="none" xmlns="http://www.w3.org/2000/svg">
<g filter="url(#filter0_i_15_6)">
<path d="M24.2 40.2L0.9 -4.98295e-05H2.65L25.95 40.2H24.2ZM28 40.2L4.75 -4.98295e-05H6.5L29.75 40.2H28ZM31.85 40.2L8.6 -4.98295e-05H10.35L33.6 40.2H31.85ZM18.7 10.85L17.85 9.44995L23.3 -4.98295e-05H25.05L18.7 10.85ZM20.6 14.1999L19.7 12.7L27.15 -4.98295e-05H28.9L20.6 14.1999ZM22.5 17.45L21.6 16.05L30.95 -4.98295e-05H32.7L22.5 17.45ZM7.07805e-08 40.2L11.1 21.15L11.95 22.65L1.75 40.2H7.07805e-08ZM3.8 40.2L13 24.4499L13.85 25.9499L5.55 40.2H3.8ZM7.65 40.2L14.9 27.75L15.75 29.25L9.4 40.2H7.65ZM44.1957 40.2V-4.98295e-05H45.6957V40.2H44.1957ZM37.5957 40.2V-4.98295e-05H39.0957V40.2H37.5957ZM40.8957 40.2V-4.98295e-05H42.3957V40.2H40.8957ZM47.4957 23.3999V21.8999H59.2457C61.1457 21.8999 62.8624 21.4833 64.3957 20.6499C65.9624 19.8166 67.1957 18.6333 68.0957 17.1C69.029 15.5666 69.4957 13.7666 69.4957 11.6999C69.4957 9.63328 69.029 7.83328 68.0957 6.29995C67.1957 4.76662 65.9624 3.58328 64.3957 2.74995C62.8624 1.91662 61.1457 1.49995 59.2457 1.49995H47.4957V-4.98295e-05H59.2457C61.4124 -4.98295e-05 63.379 0.49995 65.1457 1.49995C66.9457 2.46661 68.3624 3.83328 69.3957 5.59995C70.4624 7.33328 70.9957 9.36662 70.9957 11.6999C70.9957 14.0333 70.4624 16.0833 69.3957 17.8499C68.3624 19.5833 66.9457 20.95 65.1457 21.95C63.379 22.9166 61.4124 23.3999 59.2457 23.3999H47.4957ZM47.4957 20.1V18.6H59.2457C61.179 18.6 62.8124 18 64.1457 16.7999C65.5124 15.5666 66.1957 13.8666 66.1957 11.6999C66.1957 9.53328 65.5124 7.84995 64.1457 6.64995C62.8124 5.41662 61.179 4.79995 59.2457 4.79995H47.4957V3.29995H59.2457C60.8124 3.29995 62.229 3.64995 63.4957 4.34995C64.7624 5.01662 65.779 5.98328 66.5457 7.24995C67.3124 8.48328 67.6957 9.96662 67.6957 11.6999C67.6957 13.4333 67.3124 14.9333 66.5457 16.2C65.779 17.4333 64.7624 18.4 63.4957 19.1C62.229 19.7666 60.8124 20.1 59.2457 20.1H47.4957ZM47.4957 16.7999V15.2999H59.2457C60.2457 15.2999 61.0957 15.0166 61.7957 14.4499C62.529 13.8499 62.8957 12.9333 62.8957 11.6999C62.8957 10.4333 62.529 9.51662 61.7957 8.94995C61.0957 8.38328 60.2457 8.09995 59.2457 8.09995H47.4957V6.59995H59.2457C60.679 6.59995 61.8957 7.03328 62.8957 7.89995C63.8957 8.76662 64.3957 10.0333 64.3957 11.6999C64.3957 13.3666 63.8957 14.6333 62.8957 15.5C61.8957 16.3666 60.679 16.7999 59.2457 16.7999H47.4957Z" fill="white"/>
</g>
<defs>
<filter id="filter0_i_15_6" x="0" y="0" width="80.9961" height="50.2" filterUnits="userSpaceOnUse" color-interpolation-filters="sRGB">
<feFlood flood-opacity="0" result="BackgroundImageFix"/>
<feBlend mode="normal" in="SourceGraphic" in2="BackgroundImageFix" result="shape"/>
<feColorMatrix in="SourceAlpha" type="matrix" values="0 0 0 0 0 0 0 0 0 0 0 0 0 0 0 0 0 0 127 0" result="hardAlpha"/>
<feOffset dx="10" dy="10"/>
<feGaussianBlur stdDeviation="5"/>
<feComposite in2="hardAlpha" operator="arithmetic" k2="-1" k3="1"/>
<feColorMatrix type="matrix" values="0 0 0 0 0 0 0 0 0 0 0 0 0 0 0 0 0 0 0.25 0"/>
<feBlend mode="normal" in2="shape" result="effect1_innerShadow_15_6"/>
</filter>
</defs>
</svg>
