<svg width="151" height="121" viewBox="0 0 151 121" fill="none" xmlns="http://www.w3.org/2000/svg">
<g filter="url(#filter0_f_15_5)">
<path d="M64.2 80.2L40.9 40H42.65L65.95 80.2H64.2ZM68 80.2L44.75 40H46.5L69.75 80.2H68ZM71.85 80.2L48.6 40H50.35L73.6 80.2H71.85ZM58.7 50.85L57.85 49.45L63.3 40H65.05L58.7 50.85ZM60.6 54.1999L59.7 52.7L67.15 40H68.9L60.6 54.1999ZM62.5 57.45L61.6 56.05L70.95 40H72.7L62.5 57.45ZM40 80.2L51.1 61.15L51.95 62.65L41.75 80.2H40ZM43.8 80.2L53 64.4499L53.85 65.9499L45.55 80.2H43.8ZM47.65 80.2L54.9 67.75L55.75 69.25L49.4 80.2H47.65ZM84.1957 80.2V40H85.6957V80.2H84.1957ZM77.5957 80.2V40H79.0957V80.2H77.5957ZM80.8957 80.2V40H82.3957V80.2H80.8957ZM87.4957 63.3999V61.8999H99.2457C101.146 61.8999 102.862 61.4833 104.396 60.6499C105.962 59.8166 107.196 58.6333 108.096 57.1C109.029 55.5666 109.496 53.7666 109.496 51.6999C109.496 49.6333 109.029 47.8333 108.096 46.2999C107.196 44.7666 105.962 43.5833 104.396 42.75C102.862 41.9166 101.146 41.4999 99.2457 41.4999H87.4957V40H99.2457C101.412 40 103.379 40.4999 105.146 41.4999C106.946 42.4666 108.362 43.8333 109.396 45.5999C110.462 47.3333 110.996 49.3666 110.996 51.6999C110.996 54.0333 110.462 56.0833 109.396 57.8499C108.362 59.5833 106.946 60.95 105.146 61.95C103.379 62.9166 101.412 63.3999 99.2457 63.3999H87.4957ZM87.4957 60.1V58.6H99.2457C101.179 58.6 102.812 58 104.146 56.7999C105.512 55.5666 106.196 53.8666 106.196 51.6999C106.196 49.5333 105.512 47.8499 104.146 46.65C102.812 45.4166 101.179 44.8 99.2457 44.8H87.4957V43.2999H99.2457C100.812 43.2999 102.229 43.6499 103.496 44.35C104.762 45.0166 105.779 45.9833 106.546 47.2499C107.312 48.4833 107.696 49.9666 107.696 51.6999C107.696 53.4333 107.312 54.9333 106.546 56.2C105.779 57.4333 104.762 58.4 103.496 59.1C102.229 59.7666 100.812 60.1 99.2457 60.1H87.4957ZM87.4957 56.7999V55.2999H99.2457C100.246 55.2999 101.096 55.0166 101.796 54.4499C102.529 53.8499 102.896 52.9333 102.896 51.6999C102.896 50.4333 102.529 49.5166 101.796 48.95C101.096 48.3833 100.246 48.1 99.2457 48.1H87.4957V46.5999H99.2457C100.679 46.5999 101.896 47.0333 102.896 47.8999C103.896 48.7666 104.396 50.0333 104.396 51.6999C104.396 53.3666 103.896 54.6333 102.896 55.5C101.896 56.3666 100.679 56.7999 99.2457 56.7999H87.4957Z" fill="#FF0004"/>
</g>
<defs>
<filter id="filter0_f_15_5" x="0" y="0" width="150.996" height="120.2" filterUnits="userSpaceOnUse" color-interpolation-filters="sRGB">
<feFlood flood-opacity="0" result="BackgroundImageFix"/>
<feBlend mode="normal" in="SourceGraphic" in2="BackgroundImageFix" result="shape"/>
<feGaussianBlur stdDeviation="20" result="effect1_foregroundBlur_15_5"/>
</filter>
</defs>
</svg>
