<svg width="264" height="121" viewBox="0 0 264 121" fill="none" xmlns="http://www.w3.org/2000/svg">
<g filter="url(#filter0_f_15_5)">
<path d="M51.6971 80.2L28.3971 40H30.1471L53.4471 80.2H51.6971ZM55.4971 80.2L32.2471 40H33.9971L57.2471 80.2H55.4971ZM59.3471 80.2L36.0971 40H37.8471L61.0971 80.2H59.3471ZM46.1971 50.85L45.3471 49.45L50.7971 40H52.5471L46.1971 50.85ZM48.0971 54.1999L47.1971 52.7L54.6471 40H56.3971L48.0971 54.1999ZM49.9971 57.45L49.0971 56.05L58.4471 40H60.1971L49.9971 57.45ZM27.4971 80.2L38.5971 61.15L39.4471 62.65L29.2471 80.2H27.4971ZM31.2971 80.2L40.4971 64.4499L41.3471 65.9499L33.0471 80.2H31.2971ZM35.1471 80.2L42.3971 67.75L43.2471 69.25L36.8971 80.2H35.1471ZM71.6928 80.2V40H73.1928V80.2H71.6928ZM65.0928 80.2V40H66.5928V80.2H65.0928ZM68.3928 80.2V40H69.8928V80.2H68.3928ZM74.9928 63.3999V61.8999H86.7428C88.6428 61.8999 90.3594 61.4833 91.8928 60.6499C93.4594 59.8166 94.6928 58.6333 95.5928 57.1C96.5261 55.5666 96.9928 53.7666 96.9928 51.6999C96.9928 49.6333 96.5261 47.8333 95.5928 46.2999C94.6928 44.7666 93.4594 43.5833 91.8928 42.75C90.3594 41.9166 88.6428 41.4999 86.7428 41.4999H74.9928V40H86.7428C88.9094 40 90.8761 40.4999 92.6428 41.4999C94.4428 42.4666 95.8594 43.8333 96.8928 45.5999C97.9594 47.3333 98.4928 49.3666 98.4928 51.6999C98.4928 54.0333 97.9594 56.0833 96.8928 57.8499C95.8594 59.5833 94.4428 60.95 92.6428 61.95C90.8761 62.9166 88.9094 63.3999 86.7428 63.3999H74.9928ZM74.9928 60.1V58.6H86.7428C88.6761 58.6 90.3094 58 91.6428 56.7999C93.0094 55.5666 93.6928 53.8666 93.6928 51.6999C93.6928 49.5333 93.0094 47.8499 91.6428 46.65C90.3094 45.4166 88.6761 44.8 86.7428 44.8H74.9928V43.2999H86.7428C88.3094 43.2999 89.7261 43.6499 90.9928 44.35C92.2594 45.0166 93.2761 45.9833 94.0428 47.2499C94.8094 48.4833 95.1928 49.9666 95.1928 51.6999C95.1928 53.4333 94.8094 54.9333 94.0428 56.2C93.2761 57.4333 92.2594 58.4 90.9928 59.1C89.7261 59.7666 88.3094 60.1 86.7428 60.1H74.9928ZM74.9928 56.7999V55.2999H86.7428C87.7428 55.2999 88.5928 55.0166 89.2928 54.4499C90.0261 53.8499 90.3928 52.9333 90.3928 51.6999C90.3928 50.4333 90.0261 49.5166 89.2928 48.95C88.5928 48.3833 87.7428 48.1 86.7428 48.1H74.9928V46.5999H86.7428C88.1761 46.5999 89.3928 47.0333 90.3928 47.8999C91.3928 48.7666 91.8928 50.0333 91.8928 51.6999C91.8928 53.3666 91.3928 54.6333 90.3928 55.5C89.3928 56.3666 88.1761 56.7999 86.7428 56.7999H74.9928ZM104.574 80.2V60.1H112.424C114.058 60.1333 115.458 60.6999 116.624 61.7999C117.791 62.8666 118.374 64.35 118.374 66.25C118.374 67.7166 118.008 68.95 117.274 69.95C116.574 70.95 115.658 71.65 114.524 72.05L118.024 80.2H116.374L113.074 72.35C112.808 72.3833 112.591 72.4 112.424 72.4H111.124L114.424 80.2H112.774L109.474 72.4H106.074V80.2H104.574ZM101.274 80.2V60.1H102.774V80.2H101.274ZM112.324 61.6H106.074V63.3999H112.424C113.224 63.4333 113.858 63.7166 114.324 64.25C114.824 64.75 115.074 65.4166 115.074 66.25C115.074 67.0833 114.824 67.7666 114.324 68.3C113.824 68.8333 113.191 69.1 112.424 69.1H106.074V70.9H112.324C113.591 70.9 114.658 70.5166 115.524 69.75C116.424 68.95 116.874 67.7833 116.874 66.25C116.874 64.7166 116.424 63.5666 115.524 62.8C114.658 62 113.591 61.6 112.324 61.6ZM112.324 64.8999H106.074V67.6H112.324C112.691 67.6 112.991 67.5 113.224 67.3C113.458 67.0666 113.574 66.7166 113.574 66.25C113.574 65.7833 113.458 65.45 113.224 65.2499C112.991 65.0166 112.691 64.8999 112.324 64.8999ZM142.08 70.15C142.08 68.4166 141.663 66.8833 140.83 65.55C140.03 64.1833 138.913 63.1 137.48 62.3C136.08 61.5 134.497 61.0999 132.73 61.0999C130.963 61.0999 129.363 61.5 127.93 62.3C126.53 63.1 125.413 64.1833 124.58 65.55C123.78 66.8833 123.38 68.4166 123.38 70.15C123.38 71.85 123.78 73.3833 124.58 74.75C125.413 76.1166 126.53 77.2 127.93 78C129.363 78.8 130.963 79.2 132.73 79.2C134.497 79.2 136.08 78.8 137.48 78C138.913 77.2 140.03 76.1166 140.83 74.75C141.663 73.3833 142.08 71.85 142.08 70.15ZM138.78 70.15C138.78 68.4833 138.197 67.1166 137.03 66.05C135.897 64.95 134.463 64.4 132.73 64.4C130.997 64.4 129.547 64.95 128.38 66.05C127.247 67.1166 126.68 68.4833 126.68 70.15C126.68 71.7833 127.247 73.15 128.38 74.25C129.547 75.35 130.997 75.9 132.73 75.9C134.463 75.9 135.897 75.35 137.03 74.25C138.197 73.15 138.78 71.7833 138.78 70.15ZM132.73 77.4C131.297 77.4 130.013 77.0833 128.88 76.45C127.747 75.8166 126.847 74.95 126.18 73.85C125.513 72.75 125.18 71.5166 125.18 70.15C125.18 68.7833 125.513 67.55 126.18 66.45C126.847 65.35 127.747 64.4833 128.88 63.85C130.013 63.2166 131.297 62.9 132.73 62.9C134.163 62.9 135.447 63.2166 136.58 63.85C137.713 64.4833 138.613 65.35 139.28 66.45C139.947 67.55 140.28 68.7833 140.28 70.15C140.28 71.5166 139.947 72.75 139.28 73.85C138.613 74.95 137.713 75.8166 136.58 76.45C135.447 77.0833 134.163 77.4 132.73 77.4ZM132.73 80.7C130.697 80.7 128.863 80.2333 127.23 79.3C125.597 78.3666 124.297 77.1 123.33 75.5C122.363 73.9 121.88 72.1166 121.88 70.15C121.88 68.15 122.363 66.3666 123.33 64.7999C124.297 63.2 125.597 61.9333 127.23 61C128.863 60.0666 130.697 59.5999 132.73 59.5999C134.763 59.5999 136.597 60.0666 138.23 61C139.863 61.9333 141.163 63.2 142.13 64.7999C143.097 66.3666 143.58 68.15 143.58 70.15C143.58 72.1166 143.097 73.9 142.13 75.5C141.163 77.1 139.863 78.3666 138.23 79.3C136.597 80.2333 134.763 80.7 132.73 80.7ZM155.087 80.7C153.62 80.7 152.27 80.3833 151.037 79.75C149.837 79.1166 148.87 78.2 148.137 77C147.437 75.8 147.087 74.35 147.087 72.65H148.587C148.587 74.7833 149.22 76.4166 150.487 77.55C151.787 78.65 153.32 79.2 155.087 79.2C156.854 79.2 158.37 78.65 159.637 77.55C160.937 76.4166 161.587 74.7833 161.587 72.65V60.1H163.087V72.7C163.054 74.4 162.67 75.85 161.937 77.05C161.237 78.2166 160.287 79.1166 159.087 79.75C157.887 80.3833 156.554 80.7 155.087 80.7ZM155.087 77.4C153.82 77.4 152.72 77 151.787 76.2C150.854 75.4 150.387 74.2166 150.387 72.65H151.887C151.887 73.7833 152.204 74.6166 152.837 75.15C153.47 75.65 154.22 75.9 155.087 75.9C155.954 75.9 156.704 75.65 157.337 75.15C157.97 74.6166 158.287 73.7833 158.287 72.65V60.1H159.787V72.7C159.754 74.2666 159.27 75.45 158.337 76.25C157.437 77.0166 156.354 77.4 155.087 77.4ZM170.869 80.2V60.1H182.819V61.6H172.369V63.3999H182.819V64.8999H172.369V67.75H181.219V69.25H172.369V71.05H181.219V72.55H172.369V75.4H182.819V76.9H172.369V78.7H182.819V80.2H170.869ZM167.569 80.2V60.1H169.069V80.2H167.569ZM195.607 77.4C194.174 77.4 192.89 77.0833 191.757 76.45C190.624 75.8166 189.724 74.95 189.057 73.85C188.39 72.75 188.057 71.5166 188.057 70.15C188.057 68.7833 188.39 67.55 189.057 66.45C189.724 65.35 190.624 64.4833 191.757 63.85C192.89 63.2166 194.174 62.9 195.607 62.9C196.807 62.9 197.907 63.1333 198.907 63.6C199.94 64.0666 200.79 64.7 201.457 65.5L200.257 66.4C199.124 65.0666 197.574 64.4 195.607 64.4C193.874 64.4 192.424 64.95 191.257 66.05C190.124 67.1166 189.557 68.4833 189.557 70.15C189.557 71.7833 190.124 73.15 191.257 74.25C192.424 75.35 193.874 75.9 195.607 75.9C197.574 75.9 199.124 75.2333 200.257 73.9L201.457 74.8C200.79 75.6 199.94 76.2333 198.907 76.7C197.907 77.1666 196.807 77.4 195.607 77.4ZM195.607 80.7C193.574 80.7 191.74 80.2333 190.107 79.3C188.474 78.3666 187.174 77.1 186.207 75.5C185.24 73.9 184.757 72.1166 184.757 70.15C184.757 68.15 185.24 66.3666 186.207 64.7999C187.174 63.2 188.474 61.9333 190.107 61C191.74 60.0666 193.574 59.5999 195.607 59.5999C197.34 59.5999 198.94 59.9499 200.407 60.6499C201.874 61.35 203.09 62.2833 204.057 63.45L202.907 64.35C202.074 63.35 201.024 62.5666 199.757 62C198.49 61.3999 197.107 61.0999 195.607 61.0999C193.84 61.0999 192.24 61.5 190.807 62.3C189.407 63.1 188.29 64.1833 187.457 65.55C186.657 66.8833 186.257 68.4166 186.257 70.15C186.257 71.85 186.657 73.3833 187.457 74.75C188.29 76.1166 189.407 77.2 190.807 78C192.24 78.8 193.84 79.2 195.607 79.2C197.107 79.2 198.49 78.9166 199.757 78.35C201.024 77.75 202.074 76.95 202.907 75.95L204.057 76.85C203.09 78.0166 201.874 78.95 200.407 79.65C198.94 80.35 197.34 80.7 195.607 80.7ZM206.571 61.6V60.1H223.021V61.6H206.571ZM212.371 80.2V64.8999H206.571V63.3999H223.021V64.8999H217.171V80.2H215.671V64.8999H213.871V80.2H212.371Z" fill="#FF0004"/>
</g>
<defs>
<filter id="filter0_f_15_5" x="-12.5029" y="0" width="275.524" height="120.7" filterUnits="userSpaceOnUse" color-interpolation-filters="sRGB">
<feFlood flood-opacity="0" result="BackgroundImageFix"/>
<feBlend mode="normal" in="SourceGraphic" in2="BackgroundImageFix" result="shape"/>
<feGaussianBlur stdDeviation="20" result="effect1_foregroundBlur_15_5"/>
</filter>
</defs>
</svg>
