<svg width="196" height="41" viewBox="0 0 196 41" fill="none" xmlns="http://www.w3.org/2000/svg">
<g filter="url(#filter0_i_15_6)">
<path d="M24.2 40.2L0.9 -4.98295e-05H2.65L25.95 40.2H24.2ZM28 40.2L4.75 -4.98295e-05H6.5L29.75 40.2H28ZM31.85 40.2L8.6 -4.98295e-05H10.35L33.6 40.2H31.85ZM18.7 10.85L17.85 9.44995L23.3 -4.98295e-05H25.05L18.7 10.85ZM20.6 14.1999L19.7 12.7L27.15 -4.98295e-05H28.9L20.6 14.1999ZM22.5 17.45L21.6 16.05L30.95 -4.98295e-05H32.7L22.5 17.45ZM7.07805e-08 40.2L11.1 21.15L11.95 22.65L1.75 40.2H7.07805e-08ZM3.8 40.2L13 24.4499L13.85 25.9499L5.55 40.2H3.8ZM7.65 40.2L14.9 27.75L15.75 29.25L9.4 40.2H7.65ZM44.1957 40.2V-4.98295e-05H45.6957V40.2H44.1957ZM37.5957 40.2V-4.98295e-05H39.0957V40.2H37.5957ZM40.8957 40.2V-4.98295e-05H42.3957V40.2H40.8957ZM47.4957 23.3999V21.8999H59.2457C61.1457 21.8999 62.8624 21.4833 64.3957 20.6499C65.9624 19.8166 67.1957 18.6333 68.0957 17.1C69.029 15.5666 69.4957 13.7666 69.4957 11.6999C69.4957 9.63328 69.029 7.83328 68.0957 6.29995C67.1957 4.76662 65.9624 3.58328 64.3957 2.74995C62.8624 1.91662 61.1457 1.49995 59.2457 1.49995H47.4957V-4.98295e-05H59.2457C61.4124 -4.98295e-05 63.379 0.49995 65.1457 1.49995C66.9457 2.46661 68.3624 3.83328 69.3957 5.59995C70.4624 7.33328 70.9957 9.36662 70.9957 11.6999C70.9957 14.0333 70.4624 16.0833 69.3957 17.8499C68.3624 19.5833 66.9457 20.95 65.1457 21.95C63.379 22.9166 61.4124 23.3999 59.2457 23.3999H47.4957ZM47.4957 20.1V18.6H59.2457C61.179 18.6 62.8124 18 64.1457 16.7999C65.5124 15.5666 66.1957 13.8666 66.1957 11.6999C66.1957 9.53328 65.5124 7.84995 64.1457 6.64995C62.8124 5.41662 61.179 4.79995 59.2457 4.79995H47.4957V3.29995H59.2457C60.8124 3.29995 62.229 3.64995 63.4957 4.34995C64.7624 5.01662 65.779 5.98328 66.5457 7.24995C67.3124 8.48328 67.6957 9.96662 67.6957 11.6999C67.6957 13.4333 67.3124 14.9333 66.5457 16.2C65.779 17.4333 64.7624 18.4 63.4957 19.1C62.229 19.7666 60.8124 20.1 59.2457 20.1H47.4957ZM47.4957 16.7999V15.2999H59.2457C60.2457 15.2999 61.0957 15.0166 61.7957 14.4499C62.529 13.8499 62.8957 12.9333 62.8957 11.6999C62.8957 10.4333 62.529 9.51662 61.7957 8.94995C61.0957 8.38328 60.2457 8.09995 59.2457 8.09995H47.4957V6.59995H59.2457C60.679 6.59995 61.8957 7.03328 62.8957 7.89995C63.8957 8.76662 64.3957 10.0333 64.3957 11.6999C64.3957 13.3666 63.8957 14.6333 62.8957 15.5C61.8957 16.3666 60.679 16.7999 59.2457 16.7999H47.4957ZM77.0773 40.2V20.1H84.9273C86.5607 20.1333 87.9607 20.6999 89.1273 21.7999C90.294 22.8666 90.8773 24.35 90.8773 26.25C90.8773 27.7166 90.5107 28.95 89.7773 29.95C89.0773 30.95 88.1607 31.65 87.0273 32.05L90.5273 40.2H88.8773L85.5773 32.35C85.3107 32.3833 85.094 32.4 84.9273 32.4H83.6273L86.9273 40.2H85.2773L81.9773 32.4H78.5773V40.2H77.0773ZM73.7773 40.2V20.1H75.2773V40.2H73.7773ZM84.8273 21.6H78.5773V23.3999H84.9273C85.7273 23.4333 86.3607 23.7166 86.8273 24.25C87.3273 24.75 87.5773 25.4166 87.5773 26.25C87.5773 27.0833 87.3273 27.7666 86.8273 28.3C86.3273 28.8333 85.694 29.1 84.9273 29.1H78.5773V30.9H84.8273C86.094 30.9 87.1607 30.5166 88.0273 29.75C88.9273 28.95 89.3773 27.7833 89.3773 26.25C89.3773 24.7166 88.9273 23.5666 88.0273 22.8C87.1607 22 86.094 21.6 84.8273 21.6ZM84.8273 24.8999H78.5773V27.6H84.8273C85.194 27.6 85.494 27.5 85.7273 27.3C85.9607 27.0666 86.0773 26.7166 86.0773 26.25C86.0773 25.7833 85.9607 25.45 85.7273 25.2499C85.494 25.0166 85.194 24.8999 84.8273 24.8999ZM114.583 30.15C114.583 28.4166 114.166 26.8833 113.333 25.55C112.533 24.1833 111.416 23.1 109.983 22.3C108.583 21.5 106.999 21.0999 105.233 21.0999C103.466 21.0999 101.866 21.5 100.433 22.3C99.0328 23.1 97.9161 24.1833 97.0828 25.55C96.2828 26.8833 95.8828 28.4166 95.8828 30.15C95.8828 31.85 96.2828 33.3833 97.0828 34.75C97.9161 36.1166 99.0328 37.2 100.433 38C101.866 38.8 103.466 39.2 105.233 39.2C106.999 39.2 108.583 38.8 109.983 38C111.416 37.2 112.533 36.1166 113.333 34.75C114.166 33.3833 114.583 31.85 114.583 30.15ZM111.283 30.15C111.283 28.4833 110.699 27.1166 109.533 26.05C108.399 24.95 106.966 24.4 105.233 24.4C103.499 24.4 102.049 24.95 100.883 26.05C99.7495 27.1166 99.1828 28.4833 99.1828 30.15C99.1828 31.7833 99.7495 33.15 100.883 34.25C102.049 35.35 103.499 35.9 105.233 35.9C106.966 35.9 108.399 35.35 109.533 34.25C110.699 33.15 111.283 31.7833 111.283 30.15ZM105.233 37.4C103.799 37.4 102.516 37.0833 101.383 36.45C100.249 35.8166 99.3495 34.95 98.6828 33.85C98.0161 32.75 97.6828 31.5166 97.6828 30.15C97.6828 28.7833 98.0161 27.55 98.6828 26.45C99.3495 25.35 100.249 24.4833 101.383 23.85C102.516 23.2166 103.799 22.9 105.233 22.9C106.666 22.9 107.949 23.2166 109.083 23.85C110.216 24.4833 111.116 25.35 111.783 26.45C112.449 27.55 112.783 28.7833 112.783 30.15C112.783 31.5166 112.449 32.75 111.783 33.85C111.116 34.95 110.216 35.8166 109.083 36.45C107.949 37.0833 106.666 37.4 105.233 37.4ZM105.233 40.7C103.199 40.7 101.366 40.2333 99.7328 39.3C98.0995 38.3666 96.7995 37.1 95.8328 35.5C94.8661 33.9 94.3828 32.1166 94.3828 30.15C94.3828 28.15 94.8661 26.3666 95.8328 24.7999C96.7995 23.2 98.0995 21.9333 99.7328 21C101.366 20.0666 103.199 19.5999 105.233 19.5999C107.266 19.5999 109.099 20.0666 110.733 21C112.366 21.9333 113.666 23.2 114.633 24.7999C115.599 26.3666 116.083 28.15 116.083 30.15C116.083 32.1166 115.599 33.9 114.633 35.5C113.666 37.1 112.366 38.3666 110.733 39.3C109.099 40.2333 107.266 40.7 105.233 40.7ZM127.59 40.7C126.123 40.7 124.773 40.3833 123.54 39.75C122.34 39.1166 121.373 38.2 120.64 37C119.94 35.8 119.59 34.35 119.59 32.65H121.09C121.09 34.7833 121.723 36.4166 122.99 37.55C124.29 38.65 125.823 39.2 127.59 39.2C129.357 39.2 130.873 38.65 132.14 37.55C133.44 36.4166 134.09 34.7833 134.09 32.65V20.1H135.59V32.7C135.557 34.4 135.173 35.85 134.44 37.05C133.74 38.2166 132.79 39.1166 131.59 39.75C130.39 40.3833 129.057 40.7 127.59 40.7ZM127.59 37.4C126.323 37.4 125.223 37 124.29 36.2C123.357 35.4 122.89 34.2166 122.89 32.65H124.39C124.39 33.7833 124.707 34.6166 125.34 35.15C125.973 35.65 126.723 35.9 127.59 35.9C128.457 35.9 129.207 35.65 129.84 35.15C130.473 34.6166 130.79 33.7833 130.79 32.65V20.1H132.29V32.7C132.257 34.2666 131.773 35.45 130.84 36.25C129.94 37.0166 128.857 37.4 127.59 37.4ZM143.372 40.2V20.1H155.322V21.6H144.872V23.3999H155.322V24.8999H144.872V27.75H153.722V29.25H144.872V31.05H153.722V32.55H144.872V35.4H155.322V36.9H144.872V38.7H155.322V40.2H143.372ZM140.072 40.2V20.1H141.572V40.2H140.072ZM168.11 37.4C166.676 37.4 165.393 37.0833 164.26 36.45C163.126 35.8166 162.226 34.95 161.56 33.85C160.893 32.75 160.56 31.5166 160.56 30.15C160.56 28.7833 160.893 27.55 161.56 26.45C162.226 25.35 163.126 24.4833 164.26 23.85C165.393 23.2166 166.676 22.9 168.11 22.9C169.31 22.9 170.41 23.1333 171.41 23.6C172.443 24.0666 173.293 24.7 173.96 25.5L172.76 26.4C171.626 25.0666 170.076 24.4 168.11 24.4C166.376 24.4 164.926 24.95 163.76 26.05C162.626 27.1166 162.06 28.4833 162.06 30.15C162.06 31.7833 162.626 33.15 163.76 34.25C164.926 35.35 166.376 35.9 168.11 35.9C170.076 35.9 171.626 35.2333 172.76 33.9L173.96 34.8C173.293 35.6 172.443 36.2333 171.41 36.7C170.41 37.1666 169.31 37.4 168.11 37.4ZM168.11 40.7C166.076 40.7 164.243 40.2333 162.61 39.3C160.976 38.3666 159.676 37.1 158.71 35.5C157.743 33.9 157.26 32.1166 157.26 30.15C157.26 28.15 157.743 26.3666 158.71 24.7999C159.676 23.2 160.976 21.9333 162.61 21C164.243 20.0666 166.076 19.5999 168.11 19.5999C169.843 19.5999 171.443 19.9499 172.91 20.6499C174.376 21.35 175.593 22.2833 176.56 23.45L175.41 24.35C174.576 23.35 173.526 22.5666 172.26 22C170.993 21.3999 169.61 21.0999 168.11 21.0999C166.343 21.0999 164.743 21.5 163.31 22.3C161.91 23.1 160.793 24.1833 159.96 25.55C159.16 26.8833 158.76 28.4166 158.76 30.15C158.76 31.85 159.16 33.3833 159.96 34.75C160.793 36.1166 161.91 37.2 163.31 38C164.743 38.8 166.343 39.2 168.11 39.2C169.61 39.2 170.993 38.9166 172.26 38.35C173.526 37.75 174.576 36.95 175.41 35.95L176.56 36.85C175.593 38.0166 174.376 38.95 172.91 39.65C171.443 40.35 169.843 40.7 168.11 40.7ZM179.074 21.6V20.1H195.524V21.6H179.074ZM184.874 40.2V24.8999H179.074V23.3999H195.524V24.8999H189.674V40.2H188.174V24.8999H186.374V40.2H184.874Z" fill="white"/>
</g>
<defs>
<filter id="filter0_i_15_6" x="0" y="0" width="205.524" height="50.7" filterUnits="userSpaceOnUse" color-interpolation-filters="sRGB">
<feFlood flood-opacity="0" result="BackgroundImageFix"/>
<feBlend mode="normal" in="SourceGraphic" in2="BackgroundImageFix" result="shape"/>
<feColorMatrix in="SourceAlpha" type="matrix" values="0 0 0 0 0 0 0 0 0 0 0 0 0 0 0 0 0 0 127 0" result="hardAlpha"/>
<feOffset dx="10" dy="10"/>
<feGaussianBlur stdDeviation="5"/>
<feComposite in2="hardAlpha" operator="arithmetic" k2="-1" k3="1"/>
<feColorMatrix type="matrix" values="0 0 0 0 0 0 0 0 0 0 0 0 0 0 0 0 0 0 0.25 0"/>
<feBlend mode="normal" in2="shape" result="effect1_innerShadow_15_6"/>
</filter>
</defs>
</svg>
